# AST/ASF file generated using VICON BodyLanguage
# -----------------------------------------------
:version 1.10
:name VICON
:units
  mass 1.0
  length 0.45
  angle deg
:documentation
   .ast/.asf automatically generated from VICON data using
   VICON BodyBuilder and BodyLanguage model FoxedUp or BRILLIANT.MOD
:root
   order TX TY TZ RX RY RZ
   axis XYZ
   position 0 0 0  
   orientation 0 0 0 
:bonedata
  begin
     id 1 
     name lhipjoint
     direction 0.54267 -0.795011 0.271047 
     length 2.39899 
     axis 0 0 0  XYZ
  end
  begin
     id 2 
     name lfemur
     direction 0.34202 -0.939693 0  
     length 7.49701  
     axis 0 0 20  XYZ
    dof rx ry rz
    limits (-160.0 20.0)
           (-70.0 70.0)
           (-60.0 70.0)
  end
  begin
     id 3 
     name ltibia
     direction 0.34202 -0.939693 0   
     length 8.1668   
     axis 0 0 20   XYZ
    dof rx
    limits (-10.0 170.0)
  end
  begin
     id 4 
     name lfoot
     direction 0.0736283 -0.202292 0.976554   
     length 2.13544   
     axis -90 7.62852e-016 20   XYZ
    dof rx rz
    limits (-45.0 90.0)
           (-70.0 20.0)
  end
  begin
     id 5 
     name ltoes
     direction 1.53557e-011 -4.22024e-011 1   
     length 1.07411   
     axis -90 7.62852e-016 20   XYZ
    dof rx
    limits (-90.0 20.0)
  end
  begin
     id 6 
     name rhipjoint
     direction -0.538061 -0.797813 0.272002   
     length 2.39057  
     axis 0 0 0  XYZ 
  end
  begin
     id 7 
     name rfemur
     direction -0.34202 -0.939693 0   
     length 7.50152   
     axis 0 0 -20   XYZ
    dof rx ry rz
    limits (-160.0 20.0)
           (-70.0 70.0)
           (-70.0 60.0)
  end
  begin
     id 8 
     name rtibia
     direction -0.34202 -0.939693 0   
     length 8.05793   
     axis 0 0 -20   XYZ
    dof rx
    limits (-10.0 170.0)
 end
 begin
     id 9 
     name rfoot
     direction -0.0765195 -0.210236 0.974652   
     length 2.28698  
     axis -90 -7.62852e-016 -20   XYZ
    dof rx rz
    limits (-45.0 90.0)
           (-20.0 70.0)
  end
  begin
     id 10 
     name rtoes
     direction -1.53542e-011 -4.21847e-011 1   
     length 1.14762   
     axis -90 -7.62852e-016 -20   XYZ
    dof rx
    limits (-90.0 20.0)
  end
  begin
     id 11 
     name lowerback
     direction -0.0217239 0.996592 -0.0795765   
     length 2.08176   
     axis 0 0 0   XYZ
    dof rx ry rz
    limits (-20.0 45.0)
           (-30.0 30.0)
           (-30.0 30.0)
  end
  begin
     id 12 
     name upperback
     direction -0.00563773 0.999651 -0.0258155   
     length 2.08898   
     axis 0 0 0   XYZ
    dof rx ry rz
    limits (-20.0 45.0)
           (-30.0 30.0)
           (-30.0 30.0)
  end
  begin
     id 13 
     name thorax
     direction 0.0032706 0.999923 0.0119599   
     length 2.0968   
     axis 0 0 0   XYZ
    dof rx ry rz
    limits (-20.0 45.0)
           (-30.0 30.0)
           (-30.0 30.0)
  end
  begin
     id 14 
     name lowerneck
     direction -0.0285886 0.99568 0.0883427   
     length 1.81272   
     axis 0 0 0   XYZ
    dof rx ry rz
    limits (-20.0 45.0)
           (-30.0 30.0)
           (-30.0 30.0)
  end
  begin
     id 15 
     name upperneck
     direction 0.0807535 0.97985 -0.18268   
     length 1.82518   
     axis 0 0 0   XYZ
    dof rx ry rz
    limits (-20.0 45.0)
           (-30.0 30.0)
           (-30.0 30.0)
  end
  begin
     id 16
     name head
     direction 0.0236605 0.997053 -0.0729767  
     length 1.84443  
     axis 0 0 0   XYZ
    dof rx ry rz
    limits (-20.0 45.0)
           (-30.0 30.0)
           (-30.0 30.0)
  end
  begin
     id 17 
     name lclavicle
     direction 0.918986 0.39378 -0.0200683  
     length 3.27822  
     axis 0 0 0   XYZ
    dof ry rz
    limits (-20.0 10.0)
           (0.0 20.0)
  end
  begin
     id 18 
     name lhumerus
     direction 1 -4.4897e-011 2.09544e-027   
     length 5.5568   
     axis 180 -30 -90   XYZ
    dof rx ry rz
    limits (-60.0 90.0)
           (-90.0 90.0)
           (-90.0 90.0)
  end
  begin
     id 19
     name lradius
     direction 1 -4.48957e-011 -1.27696e-026   
     length 3.63979   
     axis 180 -30 -90   XYZ
    dof rx
    limits (-10.0 170.0)
  end
  begin
     id 20
     name lwrist
     direction 1 -4.49001e-011 -1.49001e-026   
     length 1.8199   
     axis 9.0955e-015 90 90   XYZ
    dof ry
    limits (-180.0 0.0)
 end
  begin
     id 21 
     name lhand
     direction 1 -4.48709e-011 -2.9758e-026   
     length 0.569419   
     axis 1.90115e-014 90 90   XYZ
    dof rx rz
    limits (-90.0 90.0)
           (-45.0 45.0)
  end
  begin
     id 22 
     name lfingers
     direction 1 -4.49175e-011 -5.96505e-026   
     length 0.45908   
     axis 3.80223e-014 90 90   XYZ
    dof rx
    limits (0.0 90.0)
  end
  begin
     id 23
     name lthumb
     direction 0.707107 -6.34864e-011 0.707107   
     length 0.65915   
     axis -90 45 -3.84942e-014   XYZ
    dof rx rz
    limits (-45.0 45.0)
           (-45.0 45.0)
  end
  begin
     id 24 
     name rclavicle
     direction -0.911913 0.396426 -0.106115   
     length 3.46301  
     axis 0 0 0   XYZ 
    dof ry rz
    limits (-10.0 20.0)
           (-20.0 0.0)
  end
  begin
     id 25 
     name rhumerus
     direction -1 -4.48965e-011 7.78516e-028  
     length 5.34339   
     axis 180 30 90   XYZ
    dof rx ry rz
    limits (-90.0 60.0)
           (-90.0 90.0)
           (-90.0 90.0)
  end
  begin
     id 26 
     name rradius
     direction -1 -4.48948e-011 -5.79823e-027   
     length 3.65101   
     axis 180 30 90   XYZ
    dof rx
    limits (-10.0 170.0)
  end
  begin
     id 27 
     name rwrist
     direction -1 -4.48995e-011 -1.48996e-026   
     length 1.8255   
     axis 9.0955e-015 -90 -90   XYZ
    dof ry
    limits (-180.0 0.0)
  end
  begin
     id 28
     name rhand
     direction -1 -4.48957e-011 -2.97937e-026   
     length 0.694249   
     axis 1.90115e-014 -90 -90   XYZ
    dof rx rz
    limits (-90.0 90.0)
           (-45.0 45.0)
  end
  begin
     id 29
     name rfingers
     direction -1 -4.4898e-011 -5.95943e-026   
     length 0.559721   
     axis 3.80223e-014 -90 -90   XYZ
    dof rx
    limits (0.0 90.0)
  end
  begin
     id 30
     name rthumb
     direction -0.707107 -6.34969e-011 0.707107   
     length 0.803651   
     axis -90 -45 3.84942e-014   XYZ
    dof rx rz
    limits (-45.0 45.0)
           (-45.0 45.0)
  end
:hierarchy
  begin
    root lhipjoint rhipjoint lowerback
    lhipjoint lfemur
    lfemur ltibia
    ltibia lfoot
    lfoot ltoes
    rhipjoint rfemur
    rfemur rtibia
    rtibia rfoot
    rfoot rtoes
    lowerback upperback
    upperback thorax
    thorax lowerneck lclavicle rclavicle
    lowerneck upperneck
    upperneck head
    lclavicle lhumerus
    lhumerus lradius
    lradius lwrist
    lwrist lhand lthumb
    lhand lfingers
    rclavicle rhumerus
    rhumerus rradius
    rradius rwrist
    rwrist rhand rthumb
    rhand rfingers
  end

#!OML:ASF H:\Terrain\Walking\May29\JustinRory\rory.ASF
:FULLY-SPECIFIED
:DEGREES
216
root 14.9756 18.9122 20.1636 3.05822 -4.89781 3.87199
lowerback 1.93065 -4.09289 -6.31147
upperback 1.0421 -5.56279 1.81857
thorax 0.780676 -2.84472 5.44033
lowerneck 1.96283 -17.4946 -14.7903
upperneck 16.5692 -26.3834 15.0801
head 8.87243 -12.7854 4.58762
rclavicle 4.2043e-014 -1.27222e-014
rhumerus -37.8794 -26.2348 -50.2219
rradius 147.197
rwrist -25.8021
rhand -21.8229 48.2475
rfingers 7.12502
rthumb 4.5798 18.317
lclavicle 4.2043e-014 -1.27222e-014
lhumerus -27.8873 9.26931 71.055
lradius 123.913
lwrist 35.4107
lhand -17.7275 13.8642
lfingers 7.12502
lthumb 8.53331 43.6718
rfemur -25.606 7.15555 13.576
rtibia 26.8803
rfoot -6.41498 -15.1586
rtoes 3.97534
lfemur 1.26351 -0.700636 -26.3526
ltibia 15.7728
lfoot -15.8928 2.3559
ltoes -2.37935
217
root 14.966 18.925 20.2933 3.29539 -4.82786 3.94423
lowerback 1.84817 -4.08603 -6.27415
upperback 0.837391 -5.55184 1.80375
thorax 0.607985 -2.82699 5.40769
lowerneck 2.05931 -17.4296 -14.7317
upperneck 16.6265 -26.306 15.0412
head 8.84842 -12.753 4.5928
rclavicle 1.58034e-014 -6.36111e-015
rhumerus -38.5657 -27.0462 -49.0355
rradius 147.643
rwrist -27.027
rhand -22.4633 47.902
rfingers 7.12502
rthumb 3.96139 17.9591
lclavicle 1.58034e-014 -6.36111e-015
lhumerus -28.3063 10.0545 69.6121
lradius 123.621
lwrist 36.0081
lhand -17.3271 14.2357
lfingers 7.12502
lthumb 8.91971 44.0272
rfemur -25.6478 7.63006 13.3526
rtibia 24.8488
rfoot -5.45535 -15.3404
rtoes 1.49228
lfemur 1.79993 -0.709817 -26.4855
ltibia 15.1265
lfoot -15.7839 2.64916
ltoes -3.89325
218
root 14.9578 18.9269 20.4267 3.4555 -4.75957 4.5275
lowerback 1.01586 -4.10449 -6.67484
upperback 1.20581 -5.51733 1.55669
thorax 1.46516 -2.85079 5.28881
lowerneck 1.84937 -17.4362 -14.3243
upperneck 15.995 -26.2341 15.296
head 8.63847 -12.6908 4.62961
rclavicle 1.13307e-014 -9.54166e-015
rhumerus -38.7482 -27.8515 -48.6213
rradius 147.909
rwrist -27.5902
rhand -23.7152 48.9929
rfingers 7.12502
rthumb 2.75242 19.0309
lclavicle 1.13307e-014 -9.54166e-015
lhumerus -27.8049 10.9119 68.2445
lradius 123.108
lwrist 36.3079
lhand -17.3621 13.7792
lfingers 7.12502
lthumb 8.88597 43.5721
rfemur -25.6562 8.23185 12.4781
rtibia 22.9336
rfoot -5.42927 -15.5743
rtoes -0.639589
lfemur 2.39479 -0.796347 -27.1946
ltibia 14.4532
lfoot -15.7008 2.88469
ltoes -2.9796
219
root 14.9339 18.9241 20.546 3.62397 -4.85947 4.34228
lowerback 1.30362 -4.10701 -6.75302
upperback 0.873943 -5.55061 1.81993
thorax 0.99888 -2.845 5.64467
lowerneck 2.26397 -17.2895 -14.5543
upperneck 15.7123 -26.0058 15.2498
head 8.45867 -12.6314 4.72901
rclavicle 2.26615e-014 -1.03368e-014
rhumerus -39.8426 -27.6413 -47.1376
rradius 148.277
rwrist -28.2125
rhand -22.9011 49.2701
rfingers 7.12502
rthumb 3.53861 19.3197
lclavicle 2.26615e-014 -1.03368e-014
lhumerus -28.6701 11.5789 67.0499
lradius 122.878
lwrist 36.4773
lhand -17.3578 13.4134
lfingers 7.12502
lthumb 8.89004 43.2062
rfemur -25.9003 9.56583 12.4003
rtibia 21.4621
rfoot -6.30373 -16.5832
rtoes -2.74929
lfemur 3.24596 -0.906305 -26.996
ltibia 13.2415
lfoot -15.268 3.22295
ltoes -1.89269
220
root 14.9133 18.9302 20.6838 3.638 -4.86953 3.65258
lowerback 1.40473 -4.04969 -6.08258
upperback 0.766482 -5.47684 2.08521
thorax 0.782096 -2.79456 5.56184
lowerneck 2.5187 -17.3114 -14.7724
upperneck 15.5749 -26.0499 15.3056
head 8.41425 -12.6784 4.7905
rclavicle 4.02539e-014 6.36111e-015
rhumerus -40.7292 -28.2351 -45.5631
rradius 148.696
rwrist -28.4647
rhand -21.0977 47.7026
rfingers 7.12502
rthumb 5.27999 17.7884
lclavicle 4.02539e-014 6.36111e-015
lhumerus -29.1914 11.7572 66.0054
lradius 122.659
lwrist 36.6938
lhand -17.2672 13.3424
lfingers 7.12502
lthumb 8.97755 43.1314
rfemur -26.1335 10.4345 13.0338
rtibia 20.597
rfoot -6.70349 -17.3703
rtoes -7.38189
lfemur 4.72291 -0.746322 -26.2066
ltibia 11.4033
lfoot -14.5681 3.26946
ltoes -0.306994
221
root 14.9109 18.9435 20.8429 3.59413 -4.72362 3.96051
lowerback 1.19715 -4.06361 -6.07987
upperback 0.749196 -5.48271 1.95152
thorax 0.867498 -2.79853 5.40527
lowerneck 2.49428 -17.3704 -14.6173
upperneck 15.6034 -26.0916 15.0932
head 8.3819 -12.6989 4.69794
rclavicle 3.80673e-014 -2.22639e-014
rhumerus -41.4694 -28.6865 -44.3994
rradius 148.925
rwrist -27.5494
rhand -20.9734 46.764
rfingers 7.12502
rthumb 5.40005 16.8528
lclavicle 3.80673e-014 -2.22639e-014
lhumerus -29.5476 11.8022 64.9683
lradius 122.446
lwrist 37.2313
lhand -17.2054 13.271
lfingers 7.12502
lthumb 9.03712 43.0574
rfemur -26.2998 10.0732 12.7903
rtibia 20.0255
rfoot -6.62518 -17.0007
rtoes -11.6478
lfemur 6.25975 -0.628855 -26.5497
ltibia 9.6008
lfoot -13.9478 3.27284
ltoes 0.327763
222
root 14.902 18.9522 20.98 3.64516 -4.63737 5.31196
lowerback 0.83442 -4.18465 -7.34466
upperback 0.856041 -5.62352 1.5801
thorax 1.28779 -2.89448 5.68459
lowerneck 2.11117 -17.3672 -14.4386
upperneck 15.6139 -26.0481 15.0889
head 8.41853 -12.6467 4.64549
rclavicle 2.61402e-014 0
rhumerus -41.6457 -29.0858 -43.7516
rradius 148.848
rwrist -26.0683
rhand -20.5505 46.7824
rfingers 7.12502
rthumb 5.8083 16.882
lclavicle 2.61402e-014 0
lhumerus -29.7918 12.169 63.9252
lradius 122.32
lwrist 37.8708
lhand -17.2177 13.4425
lfingers 7.12502
lthumb 9.02526 43.2295
rfemur -26.6299 9.47273 11.459
rtibia 19.6383
rfoot -6.8083 -16.2603
rtoes -11.8188
lfemur 7.41505 -0.529302 -27.9968
ltibia 7.91558
lfoot -13.0475 3.33576
ltoes -1.27011
223
root 14.8803 18.9559 21.0943 3.84743 -4.5904 5.59762
lowerback 0.653495 -4.25814 -7.67399
upperback 0.889287 -5.7073 1.53908
thorax 1.46563 -2.94722 5.80524
lowerneck 2.11084 -17.3928 -14.6253
upperneck 15.4106 -26.1351 15.5048
head 8.45209 -12.68 4.78135
rclavicle 2.48481e-014 -7.95139e-015
rhumerus -41.6689 -29.5091 -43.3843
rradius 148.846
rwrist -25.5308
rhand -19.1054 46.9904
rfingers 7.12502
rthumb 7.20345 17.133
lclavicle 2.48481e-014 -7.95139e-015
lhumerus -30.0382 12.2944 62.9223
lradius 122.139
lwrist 38.2528
lhand -17.3951 13.5569
lfingers 7.12502
lthumb 8.85411 43.3511
rfemur -27.1819 9.24834 11.3506
rtibia 19.5641
rfoot -7.09478 -16.2779
rtoes -12.1852
lfemur 8.68935 -0.356026 -28.1969
ltibia 5.70992
lfoot -11.732 3.40237
ltoes -2.62437
224
root 14.8514 18.9584 21.2112 4.03042 -4.61647 4.98492
lowerback 0.759135 -4.19994 -7.15706
upperback 0.738691 -5.64268 1.79967
thorax 1.21515 -2.89818 5.80778
lowerneck 2.36995 -17.4785 -14.9852
upperneck 15.3707 -26.3267 15.7459
head 8.51262 -12.7902 4.88697
rclavicle 6.95746e-015 -1.27222e-014
rhumerus -42.064 -29.2403 -43.038
rradius 149.085
rwrist -25.8117
rhand -17.9391 47.2201
rfingers 7.12502
rthumb 8.32907 17.4043
lclavicle 6.95746e-015 -1.27222e-014
lhumerus -30.3919 12.0056 62.0847
lradius 121.827
lwrist 38.5947
lhand -17.4839 13.5795
lfingers 7.12502
lthumb 8.76839 43.3773
rfemur -27.6641 9.75851 12.1026
rtibia 19.4855
rfoot -7.6072 -17.1497
rtoes -12.5462
lfemur 9.95063 -0.0571931 -27.3605
ltibia 3.75194
lfoot -10.5832 3.30617
ltoes -3.51985
225
root 14.8279 18.9505 21.3563 3.87462 -4.63816 5.03184
lowerback 0.724607 -4.19924 -7.2164
upperback 0.829366 -5.63703 1.77446
thorax 1.33117 -2.90288 5.80742
lowerneck 2.24879 -17.5749 -14.8426
upperneck 15.4054 -26.4461 15.6831
head 8.53572 -12.8339 4.81715
rclavicle 1.00287e-013 -7.15625e-015
rhumerus -42.4347 -28.7321 -42.8481
rradius 149.355
rwrist -25.8062
rhand -18.0366 47.3025
rfingers 7.12502
rthumb 8.23505 17.483
lclavicle 1.00287e-013 -7.15625e-015
lhumerus -30.7459 11.8183 61.2336
lradius 121.496
lwrist 38.9171
lhand -17.4795 13.8754
lfingers 7.12502
lthumb 8.77266 43.6731
rfemur -27.5138 10.1644 12.0811
rtibia 19.1047
rfoot -8.24208 -17.6521
rtoes -9.34118
lfemur 10.4158 0.239431 -27.2728
ltibia 4.13988
lfoot -10.5108 2.794
ltoes -6.09407
226
root 14.8134 18.9355 21.5094 3.53533 -4.73904 5.10391
lowerback 0.7112 -4.32716 -7.18541
upperback 1.05538 -5.79953 1.63719
thorax 1.58107 -2.99871 5.62857
lowerneck 2.09953 -17.4726 -14.3559
upperneck 15.2581 -26.2468 15.5859
head 8.39574 -12.7204 4.75843
rclavicle -3.08116e-014 -1.98785e-014
rhumerus -42.3835 -27.6761 -43.4954
rradius 149.617
rwrist -25.3397
rhand -19.2225 47.3524
rfingers 7.12502
rthumb 7.09033 17.4912
lclavicle -3.08116e-014 -1.98785e-014
lhumerus -31.4817 11.9261 60.1407
lradius 121.386
lwrist 39.1047
lhand -17.5657 14.2181
lfingers 7.12502
lthumb 8.68949 44.0192
rfemur -26.9823 9.59269 12.4152
rtibia 18.8268
rfoot -8.24752 -17.2333
rtoes -6.44385
lfemur 10.996 0.638668 -27.2407
ltibia 4.73316
lfoot -10.5439 2.3058
ltoes -8.83364
227
root 14.7962 18.9249 21.6456 3.3799 -5.01396 4.87791
lowerback 0.618965 -4.36241 -6.79772
upperback 1.1963 -5.83554 1.58235
thorax 1.73861 -3.02093 5.33984
lowerneck 2.23637 -17.3361 -14.2121
upperneck 15.0461 -26.0634 15.727
head 8.2721 -12.6371 4.8368
rclavicle 4.22417e-014 -1.43125e-014
rhumerus -41.9827 -26.5433 -44.8114
rradius 150.022
rwrist -25.3583
rhand -19.8687 47.0755
rfingers 7.12502
rthumb 6.46653 17.1942
lclavicle 4.22417e-014 -1.43125e-014
lhumerus -32.1402 11.8056 59.1924
lradius 121.284
lwrist 39.043
lhand -17.5855 14.5113
lfingers 7.12502
lthumb 8.6704 44.3132
rfemur -26.7677 8.99105 13.1815
rtibia 18.9325
rfoot -7.81899 -16.6777
rtoes -6.79805
lfemur 11.7107 1.19276 -26.8303
ltibia 4.51043
lfoot -10.1132 1.85158
ltoes -8.07276
228
root 14.776 18.9197 21.7831 3.24155 -5.19611 5.08138
lowerback 0.275131 -4.24541 -6.85076
upperback 1.4311 -5.64848 1.48525
thorax 2.14374 -2.94748 5.23595
lowerneck 2.34679 -17.4231 -14.2303
upperneck 14.7044 -26.1631 15.8828
head 8.181 -12.6936 4.8858
rclavicle -1.44119e-014 9.54166e-015
rhumerus -41.6049 -26.4187 -45.5185
rradius 149.997
rwrist -26.0982
rhand -17.381 45.0373
rfingers 7.12502
rthumb 8.86774 15.2436
lclavicle -1.44119e-014 9.54166e-015
lhumerus -32.1828 11.3488 58.8911
lradius 120.901
lwrist 38.5214
lhand -17.5754 14.6159
lfingers 7.12502
lthumb 8.68005 44.4175
rfemur -26.6307 8.77577 13.2713
rtibia 19.1414
rfoot -7.2848 -16.267
rtoes -7.52369
lfemur 11.9329 1.62741 -26.8688
ltibia 5.15662
lfoot -9.82065 1.16386
ltoes -6.81815
229
root 14.7546 18.9092 21.9265 3.04904 -5.34128 5.49118
lowerback 0.57429 -4.1885 -7.52885
upperback 1.26751 -5.59946 1.65741
thorax 1.88472 -2.92161 5.82704
lowerneck 2.41208 -17.4584 -14.4251
upperneck 14.7959 -26.1442 15.4644
head 8.16169 -12.7133 4.78771
rclavicle 1.46107e-014 -3.02153e-014
rhumerus -40.8944 -24.392 -46.9816
rradius 150.291
rwrist -27.3002
rhand -17.3975 44.4599
rfingers 7.12502
rthumb 8.85176 14.6656
lclavicle 1.46107e-014 -3.02153e-014
lhumerus -33.0492 10.8706 58.9508
lradius 120.644
lwrist 38.1386
lhand -17.8819 14.4009
lfingers 7.12502
lthumb 8.38434 44.2145
rfemur -26.3824 8.81027 13.0206
rtibia 19.3386
rfoot -6.55496 -16.135
rtoes -6.575
lfemur 11.7357 2.02682 -27.1425
ltibia 6.84532
lfoot -10.0679 0.348797
ltoes -7.30059
230
root 14.7353 18.8821 22.0717 2.88443 -5.31698 5.63963
lowerback 0.777481 -4.3543 -7.3481
upperback 1.08526 -5.83805 1.44107
thorax 1.57654 -3.01841 5.51755
lowerneck 2.53223 -17.311 -14.3492
upperneck 15.2717 -25.9978 15.2441
head 8.23369 -12.6482 4.74192
rclavicle -2.80286e-014 9.54166e-015
rhumerus -40.0616 -21.9533 -49.7362
rradius 150.041
rwrist -27.4397
rhand -16.6 44.4541
rfingers 7.12502
rthumb 9.62126 14.6938
lclavicle -2.80286e-014 9.54166e-015
lhumerus -34.1632 10.1389 58.0884
lradius 120.391
lwrist 38.2437
lhand -18.1189 14.0718
lfingers 7.12502
lthumb 8.1556 43.8944
rfemur -25.9624 7.98842 13.3388
rtibia 19.641
rfoot -5.38684 -15.2045
rtoes -4.6878
lfemur 11.5821 2.26768 -27.1098
ltibia 8.50595
lfoot -10.4645 -0.430369
ltoes -7.46415
